<svg id="Layer_1" data-name="Layer 1" xmlns="http://www.w3.org/2000/svg" viewBox="0 0 11.34 11.34"><defs><style>.cls-1{fill:none;stroke:#f6f4f9;stroke-linecap:round;stroke-linejoin:round;stroke-width:0.28px;}</style></defs><path class="cls-1" d="M8.49,4.65h1c.17,0,.31.18.31.41V10c0,.23-.14.42-.31.42H8.8c-.18,0-.31-.19-.31-.42V1.05C8.49.66,8.25.34,8,.34H.81C.52.34.28.66.28,1.05v9.24c0,.39.24.71.53.71h9.72c.29,0,.53-.32.53-.71V6.22c0-.31-.18-.55-.41-.55H9.77"/><rect class="cls-1" x="1.18" y="1.31" width="2.57" height="2.57" rx="0.45"/><line class="cls-1" x1="4.95" y1="1.6" x2="7.59" y2="1.6"/><line class="cls-1" x1="4.95" y1="2.6" x2="7.59" y2="2.6"/><line class="cls-1" x1="4.95" y1="3.6" x2="7.59" y2="3.6"/><line class="cls-1" x1="1.18" y1="5.21" x2="7.59" y2="5.21"/><line class="cls-1" x1="1.18" y1="6.25" x2="7.59" y2="6.25"/><line class="cls-1" x1="1.18" y1="7.97" x2="7.59" y2="7.97"/><line class="cls-1" x1="1.18" y1="9.01" x2="7.59" y2="9.01"/></svg>